<svg xmlns="http://www.w3.org/2000/svg" xmlns:xlink="http://www.w3.org/1999/xlink"><symbol id="food" viewBox="0 0 80 80"><path fill-rule="evenodd" clip-rule="evenodd" d="M72.53 36.37c.02-.82.06-1.94-.02-2.23C71.81 18.52 57.45 6 39.8 6S7.69 18.52 6.99 34.14v3H72.5l.02-.77zM39.8 9c15.96 0 29.12 11.22 29.72 25.14H9.98C10.68 20.22 23.84 9 39.8 9zM23.24 48.86l-5.38-4-5.49 4L6 44.16l1.8-2.4 4.58 3.3 5.49-4 5.38 4 5.49-4 5.49 4 5.48-4 5.39 4 5.48-4 5.49 4 5.48-4 5.49 4 4.59-3.3 1.7 2.4-6.3 4.7-5.48-4-5.48 4-5.49-4-5.48 4-5.39-4-5.48 4-5.49-4-5.49 4zM6.3 52.06h67.4c2.4 0 4.29 2.01 4.29 4.21v3.5c0 2.41-2 4.31-4.29 4.31h-1v1A9.91 9.91 0 0 1 62.83 75H17.16a9.92 9.92 0 0 1-9.87-9.91v-1h-1c-2.4 0-4.29-1.9-4.29-4.21v-3.5c0-2.31 1.9-4.31 4.29-4.31zM62.94 72a6.9 6.9 0 0 0 6.88-6.91v-1H10.18v1a6.9 6.9 0 0 0 6.88 6.9h45.88zm10.77-10.92c.7 0 1.3-.6 1.3-1.3h.1v-3.4c0-.7-.6-1.3-1.3-1.3H6.3c-.7 0-1.3.6-1.3 1.2v3.5c0 .7.6 1.3 1.3 1.3h67.4zM41.9 21.62a2 2 0 1 1-4 .01 2 2 0 0 1 4 0zm-9.98-3a2 2 0 1 0 0-4 2 2 0 0 0 0 4zm17.95-2a2 2 0 1 1-4 0 2 2 0 0 1 4 0z" fill="#81B3D2"/></symbol><symbol id="housing" viewBox="0 0 80 80"><path fill-rule="evenodd" d="M75.9 43.18 78 41.1l-9.94-9.84V4.4H54.2v13.12L40.45 4 3 41.2l2.1 2.08 7.84-7.76v37.6H9.02V76h64.16v-2.88h-5.12v-37.7l7.83 7.76zM57.11 7.38h7.93v20.98l-7.93-7.85V7.38zm7.93 65.64h-49.1V32.54l24.5-24.36 24.6 24.36v40.48zm-31.93-4.48h16.06V44.77H33.12v23.77zm13.05-2.88H36.03v-18h10.14v18zM40.85 39.3a7.78 7.78 0 0 1-7.73-7.75 7.63 7.63 0 0 1 7.73-7.66 7.72 7.72 0 0 1 7.83 7.66 7.8 7.8 0 0 1-7.83 7.75zm5.02-7.75a5.01 5.01 0 0 0-10.04 0 5.01 5.01 0 0 0 10.04 0zM23.08 44.77h-3.01v3.88h3.01v-3.88zm3.01 0h3.01v3.88h-3v-3.88zm-3.01 5.97h-3.01v3.88h3.01v-3.88zm3.01 0h3.01v3.88h-3v-3.88zm29.12-5.97H52.2v3.88h3v-3.88zm3.01 0h3.01v3.88h-3v-3.88zm-3.01 5.97H52.2v3.88h3v-3.88zm3.01 0h3.01v3.88h-3v-3.88z" fill="#81B3D2"/></symbol><symbol id="mail" viewBox="0 0 16 12"><g fill="none"><path d="M8 8c-.3 0-.5-.1-1-.3L0 4v7c0 .5.5 1 1 1h14c.5 0 1-.5 1-1V4L9 7.7c-.5.2-.7.3-1 .3zm7-8H1C.5 0 0 .5 0 1v.8L8 6l8-4.2V1c0-.5-.5-1-1-1z" fill="#000"/></g></symbol><symbol id="phone" viewBox="0 0 18 18"><g fill="none"><path d="M3.6 7.8c1.4 2.8 3.8 5.1 6.6 6.6l2.2-2.2c.3-.3.7-.4 1-.2 1.1.4 2.3.6 3.6.6.6 0 1 .4 1 1V17c0 .6-.4 1-1 1C7.6 18 0 10.4 0 1c0-.6.4-1 1-1h3.5c.6 0 1 .4 1 1 0 1.2.2 2.4.6 3.6.1.3 0 .7-.2 1L3.6 7.8z" fill="#010101"/></g></symbol><symbol id="souvenirs" viewBox="0 0 80 80"><path d="M69.2 25.12H44.8c13.6-6.8 14.7-11.1 14.2-13.5-1.1-3.9-5.6-6.9-9.8-5.3-5.5 2.1-7 10.3-8.5 16.2-1.9-6-3.7-13.6-8-17.5-1.2-1.1-3-2.2-5.7-2-4 .4-9.7 5.3-7.3 10.8 2.2 5.3 9.5 8.7 14.4 11.4H11.8a2.8 2.8 0 0 0-2.8 2.8v11.2c0 1.6 1.3 2.8 2.8 2.8h.3V78h57V42.01h.1c1.6 0 2.8-1.3 2.8-2.8v-11.2c0-1.6-1.3-2.9-2.8-2.9zM50.8 8.82c2.1-.3 4.9 1.3 5.2 3.2.4 2.7-3.3 5.2-5 6.3-2.5 1.7-4.9 2.6-7.2 4 .8-3.7 2.5-12.9 7-13.5zm-22.6 9.8c-2.2-1.5-6.4-4.4-6.3-7.7.1-3.6 5.7-6.5 8.7-3.8 3.8 3.3 5.6 11 7 16.4-3.2-1.6-6.2-2.8-9.4-4.9zM34.1 75H15V42.01h19.1v33zm0-35.99H12v-10.9h22.1v10.9zm10 36H37V28.1h7.1V75zm22 0h-19V42h19.1v33h-.1zM69 39H47.1V28.1H69V39z" fill="#81B3D2"/></symbol><symbol id="tg" viewBox="0 0 22 18"><g fill="none"><path d="m21.44 1.62-3.17 14.95c-.24 1.05-.86 1.31-1.75.82l-4.83-3.56-2.33 2.24c-.25.26-.47.47-.97.47l.35-4.91 8.95-8.09c.39-.35-.09-.54-.6-.2L6.01 10.32l-4.75-1.5C.22 8.5.21 7.8 1.48 7.3L20.1.11c.87-.32 1.62.2 1.34 1.51z" fill="#fff"/></g></symbol><symbol id="tick" viewBox="0 0 22 16"><g fill="none"><path d="M21.8 1.3 20.77.23a.84.84 0 0 0-1.14 0L8.3 11.96 2.4 5.84a.84.84 0 0 0-1.14 0L.21 6.93c-.28.3-.28.89 0 1.18l7.42 7.7c.2.19.38.19.57.19.2 0 .38-.1.57-.2L21.61 2.5c.48-.3.48-.79.2-1.18z" fill="#333"/></g></symbol><symbol id="vk" viewBox="0 0 24 14"><g fill="none"><path fill-rule="evenodd" clip-rule="evenodd" d="M23.45.95c.17-.55 0-.95-.8-.95h-2.62c-.67 0-.98.35-1.14.73 0 0-1.34 3.2-3.23 5.27-.61.6-.89.8-1.22.8-.17 0-.42-.2-.42-.74V.95c0-.66-.18-.95-.74-.95H9.15c-.42 0-.67.3-.67.6 0 .61.95.76 1.05 2.5v3.8c0 .84-.16.99-.5.99-.88 0-3.05-3.21-4.33-6.89-.25-.71-.5-1-1.17-1H.9C.15 0 0 .35 0 .73c0 .68.89 4.07 4.14 8.55C6.32 12.34 9.38 14 12.15 14c1.67 0 1.88-.37 1.88-1v-2.32c0-.73.16-.88.69-.88.38 0 1.05.2 2.61 1.67C19.11 13.22 19.4 14 20.41 14h2.62c.75 0 1.13-.37.91-1.1-.24-.72-1.09-1.77-2.21-3.02-.62-.7-1.54-1.47-1.81-1.86-.4-.49-.28-.7 0-1.14 0 0 3.2-4.43 3.53-5.93z" fill="#fff"/></g></symbol><symbol id="yt" viewBox="0 0 20 14"><g fill="none"><path d="M17.18 0H2.81C1.31 0 0 1.3 0 2.8v8.3C0 12.7 1.3 14 2.81 14h14.37A2.8 2.8 0 0 0 20 11.2V2.8c.1-1.5-1.2-2.8-2.8-2.8zM7.03 10.4V3.6L13.87 7l-6.84 3.4z" fill="#fff"/></g></symbol></svg>